<?xml version="1.0" encoding="UTF-8"?>
<svg xmlns="http://www.w3.org/2000/svg" xmlns:xlink="http://www.w3.org/1999/xlink" width="528.76pt" height="264.24pt" viewBox="0 0 528.76 264.24" version="1.1">
<defs>
<clipPath id="clip1">
  <path d="M 103 0 L 528.761719 0 L 528.761719 136 L 103 136 Z M 103 0 "/>
</clipPath>
<clipPath id="clip2">
  <path d="M 14 95 L 528.761719 95 L 528.761719 264.238281 L 14 264.238281 Z M 14 95 "/>
</clipPath>
</defs>
<g id="surface1">
<g clip-path="url(#clip1)" clip-rule="nonzero">
<path style=" stroke:none;fill-rule:nonzero;fill:rgb(91.371155%,69.802856%,17.64679%);fill-opacity:1;" d="M 103.320313 133.367188 C 138.320313 88.953125 234.84375 -0.00390625 366.441406 -0.00390625 C 458.613281 -0.00390625 528.445313 52.394531 528.757813 52.628906 L 528.757813 52.632813 C 476.730469 27.324219 271.058594 -13.800781 109.175781 135.9375 L 103.320313 133.367188 "/>
</g>
<g clip-path="url(#clip2)" clip-rule="nonzero">
<path style=" stroke:none;fill-rule:nonzero;fill:rgb(12.548828%,25.489807%,49.01886%);fill-opacity:1;" d="M 199.160156 179.90625 C 202.652344 162.703125 214.59375 151.488281 232.949219 151.488281 C 251.582031 151.488281 263.238281 162.953125 265.863281 179.90625 Z M 517.992188 149.074219 C 521.539063 149.074219 525.023438 149.359375 528.398438 149.878906 L 528.398438 121.28125 C 522.128906 120.421875 515.429688 120.003906 508.179688 120.003906 C 457.894531 120.003906 419.933594 150.105469 419.933594 190.363281 C 419.933594 193.117188 420.113281 195.800781 420.449219 198.414063 C 413.074219 186.011719 396.707031 179.703125 373.421875 174.902344 C 343.769531 168.878906 339.667969 166.257813 340.261719 159.726563 C 340.828125 153.507813 350.789063 147.78125 365.648438 147.78125 C 375.160156 147.78125 387.882813 150.035156 399.207031 155.316406 L 399.207031 125.367188 C 388.285156 122.023438 376.355469 119.796875 363.480469 119.796875 C 326.0625 119.796875 300.957031 137.726563 298.96875 162.347656 C 298.953125 162.507813 298.949219 162.65625 298.9375 162.8125 C 289.902344 138.550781 268.792969 120.355469 232.429688 120.355469 C 188.683594 120.355469 158.796875 152.339844 158.796875 191.121094 C 158.796875 192.109375 158.828125 193.089844 158.863281 194.0625 C 150.644531 176.199219 129.183594 167.972656 100.210938 161.652344 C 66.007813 154.308594 61.136719 150.945313 61.136719 143.148438 C 61.136719 135.660156 69.878906 129.273438 83.5 129.566406 C 94.089844 129.785156 100.410156 132.324219 103.320313 133.367188 C 111.769531 122.882813 120.847656 112.832031 130.476563 103.285156 C 116.15625 98.0625 100.511719 95.378906 83.652344 95.378906 C 42.96875 95.378906 14.546875 115.730469 14.546875 146.339844 C 14.546875 169.820313 26.832031 180.496094 48.3125 187.808594 C 49.46875 188.167969 52.832031 189.214844 54.785156 189.84375 C 62.183594 191.992188 70.484375 193.894531 79.601563 195.839844 C 113.15625 203.039063 115.960938 209.097656 115.960938 215.757813 C 115.960938 223.601563 106.617188 228.285156 90.996094 228.285156 C 73.125 228.285156 56.589844 223.023438 39.277344 211.824219 C 30.40625 223.832031 21.246094 237.007813 16.367188 245.09375 C 38.035156 256.894531 63.324219 264.183594 89.863281 264.238281 L 90.382813 264.238281 C 133.734375 264.179688 161.066406 245.460938 162.476563 214.851563 C 171.644531 242.773438 197.359375 260.914063 232.105469 260.914063 C 238.796875 260.914063 248.398438 260.695313 264.21875 256.769531 L 264.21875 227.019531 C 249.519531 231.273438 243.207031 231.71875 234.582031 231.273438 C 217.308594 230.386719 203.210938 220.644531 199.160156 203.585938 L 303.648438 203.585938 C 303.917969 200.09375 304.191406 197.855469 304.191406 194.109375 L 304.191406 193.605469 C 304.191406 189.929688 303.984375 186.28125 303.582031 182.683594 C 311.519531 193.640625 328.933594 198.101563 352.824219 202.9375 C 381.921875 208.84375 383.535156 213.292969 383.535156 220.117188 C 383.535156 226.136719 375.785156 233.054688 358.597656 232.488281 C 340.9375 231.898438 320.269531 226.644531 304.296875 217.617188 L 304.296875 251.96875 C 320.953125 259.425781 342.070313 264.066406 358.480469 264.066406 C 397.839844 264.066406 424.851563 241.011719 424.851563 216.097656 C 424.851563 215.542969 424.832031 215.003906 424.8125 214.464844 C 431.777344 230.785156 445.464844 243.171875 461.023438 250.742188 C 476.523438 258.28125 493.109375 260.648438 506.746094 260.746094 C 514.765625 260.804688 521.710938 260.222656 528.398438 259.15625 L 528.398438 230.105469 C 525.023438 230.644531 521.539063 230.925781 517.992188 230.925781 C 488.871094 230.925781 465.238281 212.601563 465.238281 190.003906 C 465.238281 167.394531 488.871094 149.074219 517.992188 149.074219 "/>
</g>
<path style=" stroke:none;fill-rule:nonzero;fill:rgb(91.371155%,69.802856%,17.64679%);fill-opacity:1;" d="M 56.113281 190.289063 C 45.535156 202.578125 24.691406 231.296875 16.367188 245.09375 C 8.167969 240.3125 3.84375 237.21875 0 234.261719 C 12.660156 220.410156 32.035156 199.980469 47.902344 187.679688 C 47.902344 187.679688 55.148438 189.921875 56.113281 190.289063 "/>
</g>
</svg>
